# xmcd CD database file
#
# Track frame offsets:
#	150
#	14765
#	29560
#	46567
#	60850
#	76210
#	96145
#	111007
#	129437
#	149807
#	166642
#	190627
#	215140
#	237275
#
# Disc length: 3326 seconds
#
# Revision: 0
# Processed by: cddbd v1.4PL0 Copyright (c) Steve Scherf et al.
# Submitted via: Feurio! 1.64 - http://www.feurio.com
#
DISCID=b60cfc0e
DTITLE=Edwin Kimmler - Moving
DYEAR=1900
DGENRE=
TTITLE0=Moving
TTITLE1=New Orleans
TTITLE2=Fever
TTITLE3=Jumping at the ball tonight
TTITLE4=Hope
TTITLE5=People get ready
TTITLE6=Do what you say
TTITLE7=Party tonight
TTITLE8=Hard times
TTITLE9=God moves on the water
TTITLE10=So long
TTITLE11=Please don't let me fall
TTITLE12=Crazy mood
TTITLE13=Question
EXTD=
EXTT0=
EXTT1=
EXTT2=
EXTT3=
EXTT4=
EXTT5=
EXTT6=
EXTT7=
EXTT8=
EXTT9=
EXTT10=
EXTT11=
EXTT12=
EXTT13=
PLAYORDER=
